<?xml version="1.0" encoding="UTF-8" standalone="no"?>
<!DOCTYPE svg PUBLIC "-//W3C//DTD SVG 1.1//EN" "http://www.w3.org/Graphics/SVG/1.1/DTD/svg11.dtd">
<svg width="100%" height="100%" viewBox="0 0 749 353" version="1.1" xmlns="http://www.w3.org/2000/svg" xmlns:xlink="http://www.w3.org/1999/xlink" xml:space="preserve" xmlns:serif="http://www.serif.com/" style="fill-rule:evenodd;clip-rule:evenodd;stroke-linejoin:round;stroke-miterlimit:2;">
    <g id="Artboard1" transform="matrix(1,0,0,0.994366,-14,-26.8479)">
        <rect x="14" y="27" width="749" height="355" style="fill:none;"/>
        <clipPath id="_clip1">
            <rect x="14" y="27" width="749" height="355"/>
        </clipPath>
        <g clip-path="url(#_clip1)">
            <g id="Logo" transform="matrix(1,0,0,1.00567,0,-2.16431)">
                <path d="M350,38.506L274.714,39.044L205.427,39.531C205.427,39.531 200.903,39.426 198.224,40.544C195.545,41.662 193.866,43.766 191.277,46.375C188.73,48.943 179.613,65.522 171.065,82.903C162.518,100.283 155.391,118.7 155.391,118.7L146.214,121.468L137.037,124.224C137.037,124.224 134.247,126.527 132.949,129.978C131.65,133.43 131.844,138.025 137.832,142.628L141.562,142.244L145.278,141.847L138.37,167.762L131.449,193.664C131.449,193.664 125.799,202.351 122.273,220.797C118.746,239.244 117.345,267.453 125.861,306.515C125.861,306.515 137.719,347.83 137.853,348.062C138.244,348.74 139.132,350.23 139.87,350.873C141.862,352.61 144.81,353.713 148.944,353.872C153.756,354.057 157.524,353.831 160.338,353.334C161.077,353.204 163.975,351.956 164.529,351.642C166.107,350.747 167.873,349.849 169.797,349.015C175.798,346.411 181.933,345.337 187.82,345.609C188.297,345.631 348.755,346.093 348.755,346.093L349.063,298.53L348.871,262.259L232.291,260.119C232.291,260.119 201.319,260.565 191.944,242.778C187.802,234.919 181.614,231.033 177.025,229.192C189.834,231.951 194.672,236.119 199.762,240.304C204.175,243.932 208.382,248.807 216.308,251.057C220.507,252.249 227.499,253.36 232.009,253.787C233.588,253.937 238.323,254.037 238.673,254.044C238.881,254.047 348.525,256.735 348.525,256.735L348.743,236.228C346.04,236.211 336.711,235.858 327.249,235.754C317.787,235.65 308.584,235.507 306.922,235.331C305.126,235.141 304.41,234.07 304.154,233.037C303.898,232.005 304.089,231.012 304.089,231.012C304.089,231.012 304.029,224.192 304.013,216.696C303.996,209.199 304.026,201.031 304.218,198.304C304.41,195.577 305.701,194.058 306.935,193.216C308.168,192.374 309.357,192.216 309.357,192.216L329.236,192.511L348.525,192.857L348.743,182.937C348.743,182.937 346.76,183.561 343.398,182.757C340.036,181.954 335.669,180.274 331.632,176.798C327.597,173.322 327.138,169.999 328.108,167.198C329.077,164.397 331.475,162.122 333.132,160.738C335.708,158.589 339.659,157.504 342.988,156.957C346.318,156.412 348.64,156.342 348.717,156.342C348.717,156.342 348.977,150.496 347.243,150.575C341.214,150.848 323.699,152.292 323.699,152.292C319.015,152.863 295.475,152.554 256.412,153.164C241.21,153.401 188.436,152.983 188.368,152.984C187.881,152.989 186.558,152.446 186.561,151.959C186.561,151.959 186.174,128.343 186.33,115.534C186.33,115.534 186.704,115.302 186.471,114.88C186.238,114.459 186.396,113.921 186.817,113.688C186.849,113.671 187.296,113.437 187.484,113.342C188.017,113.074 188.642,112.779 189.355,112.458C191.385,111.544 193.7,110.631 196.289,109.779C202.057,107.882 208.278,106.556 214.796,106.075C227.34,105.151 248.715,104.244 276.431,103.371C292.582,102.862 309.882,102.399 327.185,101.987C332.935,101.85 347.468,101.535 349.089,101.5L349.102,93.451C344.764,93.506 252.012,94.559 248.26,94.617C244.56,94.675 234.067,95.135 218.91,95.899C217.896,95.95 187.497,96.949 187.471,96.95C187.26,96.961 190.399,79.282 193.123,71.188C194.431,67.3 195.834,63.717 197.237,60.538C197.729,59.423 199.096,56.587 199.121,56.539C199.216,56.358 199.368,56.22 199.557,56.142C204.911,53.929 231.791,54.143 274.906,53.707C285.638,53.598 347.29,53.317 349.73,53.335L350,38.506ZM14.151,28.868L14.151,380.698L33.633,380.698C40.391,380.698 45.873,375.217 45.873,368.458L45.873,313.423C46.577,311.956 47.309,310.301 48.077,308.245C55.78,287.612 65.174,232.87 65.174,232.87L66.007,231.858L66.789,225.27L66.251,223.873L66.213,219.81C68.363,218.433 68.353,215.901 68.353,215.901L68.673,188.871C68.931,182.99 71.916,181.668 71.916,181.668C74.332,180.338 74.868,178.182 74.877,176.554C74.879,176.011 74.814,175.534 74.748,175.157C74.661,174.654 74.569,174.35 74.569,174.35L68.737,157.803C66.441,151.312 62.265,148.588 62.265,148.588L58.382,147.23L53.883,133.618C53.883,133.618 52.945,132.241 51.115,132.734L47.359,127.377L45.873,127.287L45.847,127.287L38.606,115.38C38.606,115.38 28.914,101.158 28.365,101.679C26.475,103.472 26.814,108.511 26.814,108.511L34.427,120.584L34.44,120.571L40.387,132.17L40.169,133.631L42.181,138.822L41.669,139.693C40.763,140.522 40.887,142.18 40.887,142.18L41.182,144.09C41.406,145.09 40.284,146.871 40.284,146.871L32.479,158.149C31.762,158.945 31.761,160.444 31.761,160.444L32.633,167.928C32.393,169.558 33.838,170.197 33.838,170.197L33.517,172.709C30.8,176.734 31.364,179.028 31.364,179.028L33.12,201.098C33.744,210.189 37.99,211.172 37.99,211.172C39.918,212.1 42.923,213.059 45.873,213.94C50.467,215.312 54.921,216.427 54.921,216.427C55.741,216.495 56.844,215.632 56.844,215.632C57.196,216.753 58.036,217.926 58.036,217.926L57.395,222.938L56.767,224.155L56.1,230.743L56.856,231.909L55.882,236.92L53.755,247.802L53.806,247.802C50.851,265.754 48.196,276.964 45.873,283.958L45.873,236.792L45.873,220.541L45.847,220.541L36.619,220.541C30.327,220.541 25.186,216.026 25.186,210.403L25.186,106.357C25.186,100.734 30.327,96.232 36.619,96.232L45.847,96.232C45.856,96.232 45.864,96.232 45.873,96.232L45.873,41.108C45.873,34.349 40.391,28.868 33.633,28.868L14.151,28.868ZM178.115,121.212L178.512,131.709C178.512,131.709 166.97,138.866 165.157,140.155C162.177,142.272 159.522,145.489 157.967,148.037C156.412,150.585 155.988,151.25 154.404,157.265C153.164,161.972 152.248,168.8 151.559,175.657C150.869,182.514 150.413,189.398 150.097,194.177C149.83,198.225 149.568,208.301 149.495,211.287C149.482,211.826 149.482,212.133 149.482,212.133L165.426,213.492L182.536,214.555L182.908,223.668L152.571,219.259L144.471,217.324C144.471,217.324 144.706,211.448 144.868,209.967C145.031,208.486 145.293,203.952 145.65,198.368C146.007,192.784 146.459,186.143 146.97,180.45C147.482,174.757 149.291,159.768 149.726,157.06C150.16,154.352 151.016,150.621 152.712,146.537C154.408,142.454 156.939,138.026 160.722,133.9C164.506,129.774 171.748,125.723 178.115,121.212ZM178.679,134.503L179.243,145.243C177.238,145.816 169.944,149.545 167.028,152.523C165.37,154.217 161.814,159.782 160.697,163.071C159.972,165.206 159.146,167.974 158.031,176.106C157.297,181.453 157.159,186.333 157.159,186.333L155.263,210.864C155.263,210.864 151.1,210.87 151.033,210.569C150.966,210.269 152.226,186.35 153.199,179.861C155.249,166.183 155.843,152.987 162.517,145.538C167.587,139.878 178.679,134.503 178.679,134.503ZM179.64,148.357L182.344,212.556L157.646,211.056L160.646,173.401C163.216,150.845 179.64,148.357 179.64,148.357ZM49.141,177.772L55.857,180.553C56.963,180.795 56.984,182.257 56.984,182.257L56.523,209.852L45.873,208.98L44.219,208.852C39.283,206.967 39.067,202.982 39.067,202.982C37.539,200.355 38.029,183.373 38.029,183.373C38.283,180.751 39.695,180.579 39.695,180.579L43.873,179.156L45.873,180.758L49.346,183.539C50.624,184.786 50.192,186.269 50.192,186.269L45.873,198.24L43.232,205.558C42.742,207.053 44.706,207.16 44.706,207.16L45.873,204.405L53.639,186.026C54.502,182.981 53.691,181.911 53.691,181.911L49.141,177.772ZM125.707,310.821L127.861,336.147L129.86,365.779C129.86,365.779 130.669,369.102 133.551,372.636C136.433,376.17 141.386,379.922 149.7,380.787C156.184,381.462 165.51,381.537 174.577,381.467C174.606,381.455 174.638,381.416 174.667,381.403C174.67,381.401 174.677,381.404 174.68,381.403C176.374,381.028 183.338,377.856 186.369,351.168C186.618,348.969 186.291,348.587 186.471,347.085C181.144,347.001 175.97,348.239 170.489,350.617C168.625,351.426 166.914,352.289 165.388,353.155C164.855,353.457 162.984,354.508 162.645,354.603C162.101,354.756 161.441,354.911 160.646,355.052C157.705,355.57 153.812,355.805 148.88,355.615C144.359,355.442 141.03,354.186 138.729,352.181C137.84,351.406 137.163,350.573 136.678,349.733C136.379,349.213 136.211,348.791 136.127,348.502L125.707,310.821Z" style="fill:url(#_Linear2);"/>
                <path d="M468.797,281.837L436.611,281.837L436.611,236.689L401.567,236.689L401.567,281.837L369.163,281.837L368.753,140.53L401.157,140.53L401.567,194.737L436.611,194.737L436.201,140.53L468.387,140.53L468.797,281.837Z" style="fill:rgb(51,51,51);"/>
                <path d="M533.001,259.929C533.001,266.614 531.216,271.875 527.644,275.712C524.072,279.55 518.673,281.468 511.446,281.468L483.91,281.468L483.91,257.701L511.446,257.701C514.769,257.701 516.43,256.381 516.43,253.74L516.43,250.15L497.74,250.15C490.68,250.15 485.301,248.252 481.605,244.456C477.908,240.659 476.06,234.759 476.06,226.754L476.06,194.817L492.382,194.817L492.382,224.154C492.382,225.805 492.715,227.022 493.379,227.806C494.044,228.59 495.207,228.982 496.868,228.982L516.804,228.982L516.804,194.817L533.001,194.817L533.001,259.929Z" style="fill:rgb(51,51,51);"/>
                <path d="M544.963,194.817L580.349,194.817C587.409,194.817 592.746,196.57 596.359,200.078C599.973,203.585 601.78,208.351 601.78,214.375L601.78,224.402C601.78,228.363 601.136,231.417 599.848,233.562C598.561,235.708 596.92,237.193 594.927,238.019C597.252,238.926 598.976,240.309 600.097,242.166C601.219,244.022 601.78,246.808 601.78,250.521L601.78,259.929C601.78,262.983 601.426,265.809 600.72,268.409C600.014,271.008 598.831,273.278 597.169,275.217C595.508,277.156 593.286,278.683 590.503,279.797C587.721,280.911 584.253,281.468 580.099,281.468L544.963,281.468L544.963,228.611L580.722,228.611C582.467,228.611 583.713,228.219 584.46,227.435C585.208,226.651 585.582,225.433 585.582,223.783C585.582,222.05 585.208,220.75 584.46,219.884C583.713,219.017 582.467,218.584 580.722,218.584L544.963,218.584L544.963,194.817ZM585.706,252.378C585.706,250.563 585.353,249.221 584.647,248.355C583.941,247.488 582.674,247.055 580.847,247.055L561.161,247.055L561.161,257.701L580.847,257.701C582.758,257.701 584.045,257.268 584.71,256.401C585.374,255.535 585.706,254.194 585.706,252.378Z" style="fill:rgb(51,51,51);"/>
                <path d="M670.433,281.468L650.747,281.468L634.549,251.14L627.696,251.14L627.696,281.468L611.498,281.468L611.498,226.011L647.632,226.011C649.293,226.011 650.414,225.784 650.996,225.33C651.577,224.876 651.868,223.907 651.868,222.421C651.868,220.936 651.577,219.925 650.996,219.388C650.414,218.852 649.293,218.584 647.632,218.584L611.498,218.584L611.498,194.817L646.884,194.817C650.705,194.817 653.986,195.188 656.727,195.931C659.468,196.673 661.69,197.911 663.393,199.644C665.096,201.377 666.342,203.626 667.131,206.391C667.92,209.155 668.315,212.56 668.315,216.603L668.315,230.22C668.315,236.244 666.986,240.948 664.328,244.332C661.67,247.715 657.724,249.49 652.491,249.655L670.433,281.468Z" style="fill:rgb(51,51,51);"/>
                <rect x="678.532" y="194.817" width="16.198" height="86.651" style="fill:rgb(51,51,51);"/>
                <path d="M763.757,259.929C763.757,262.652 763.362,265.314 762.573,267.913C761.784,270.513 760.517,272.803 758.773,274.784C757.029,276.764 754.786,278.374 752.045,279.611C749.304,280.849 746.022,281.468 742.201,281.468L706.691,281.468L706.691,226.011L722.889,226.011L722.889,257.701L742.201,257.701C744.029,257.701 745.379,257.309 746.251,256.525C747.123,255.741 747.559,254.359 747.559,252.378L747.559,223.783C747.559,222.132 747.227,220.874 746.562,220.007C745.898,219.141 744.444,218.708 742.201,218.708L706.691,218.708L706.691,194.817L742.201,194.817C749.677,194.817 755.139,196.756 758.586,200.635C762.033,204.513 763.757,209.836 763.757,216.603L763.757,259.929Z" style="fill:rgb(51,51,51);"/>
                <g transform="matrix(1,0,0,0.576271,0,127.36)">
                    <rect x="367.68" y="300.57" width="395.193" height="9.44" style="fill:rgb(74,78,181);"/>
                </g>
            </g>
        </g>
    </g>
    <defs>
        <linearGradient id="_Linear2" x1="0" y1="0" x2="1" y2="0" gradientUnits="userSpaceOnUse" gradientTransform="matrix(-222,200,-200,-222,260,118)"><stop offset="0" style="stop-color:rgb(73,77,180);stop-opacity:1"/><stop offset="0.57" style="stop-color:rgb(184,110,232);stop-opacity:1"/><stop offset="1" style="stop-color:rgb(233,125,255);stop-opacity:1"/></linearGradient>
    </defs>
</svg>
